<svg width="28" height="28" viewBox="0 0 28 28" fill="none" xmlns="http://www.w3.org/2000/svg">
<path d="M10.5202 19.1651L14 15.6561L17.4798 19.1651L18.8603 17.7744L15.38 14.2641L16.1059 13.5314V12.0848L16.6105 11.5757V12.8373L17.0491 13.2801L18.8136 11.5002L19.25 11.9402C19.2467 11.6083 19.181 10.6477 18.373 9.84678C17.5012 9.00091 16.5598 9.38203 16.2378 9.70709L14.4747 11.4861L14.9244 11.9393L14 12.8721L13.0754 11.9393L13.5253 11.4861L11.7619 9.70709C11.4399 9.38203 10.4984 9.00091 9.62667 9.84678C8.81882 10.6477 8.75315 11.6083 8.75001 11.9402L9.18642 11.5002L10.9507 13.2801L11.3896 12.8373V11.5757L11.8937 12.0848V13.5314L12.6197 14.2641L9.13956 17.7744L10.5202 19.1651Z" fill="#2B2D33"/>
<path fill-rule="evenodd" clip-rule="evenodd" d="M2.33334 8.16666C2.33334 6.23367 3.90035 4.66666 5.83334 4.66666H22.1667C24.0997 4.66666 25.6667 6.23367 25.6667 8.16666V19.8333C25.6667 21.7663 24.0997 23.3333 22.1667 23.3333H5.83334C3.90035 23.3333 2.33334 21.7663 2.33334 19.8333V8.16666ZM5.83334 7C5.18901 7 4.66668 7.52233 4.66668 8.16666V9.33333H7.00001V11.6667H4.66668V19.8333C4.66668 20.4777 5.18901 21 5.83334 21H22.1667C22.811 21 23.3333 20.4777 23.3333 19.8333V11.6667H21V9.33333H23.3333V8.16666C23.3333 7.52233 22.811 7 22.1667 7H5.83334Z" fill="#2B2D33"/>
</svg>
