<svg width="28" height="28" viewBox="0 0 28 28" fill="none" xmlns="http://www.w3.org/2000/svg">
<path fill-rule="evenodd" clip-rule="evenodd" d="M14.5475 1.52189C15.1137 1.28737 15.7205 1.16666 16.3333 1.16666C16.9462 1.16666 17.553 1.28737 18.1192 1.52189C18.6854 1.75641 19.1998 2.10016 19.6332 2.5335C20.0665 2.96684 20.4102 3.48129 20.6448 4.04747C20.8793 4.61366 21 5.2205 21 5.83333V7H23.3333C24.622 7 25.6667 8.04467 25.6667 9.33333V22.1667C25.6667 23.4553 24.622 24.5 23.3333 24.5H18.6667V22.1667H23.3333V9.33333H21V11.6667H18.6667V9.33333H14V11.6667H11.6667V9.33333H9.33333V12.8333H7V9.33333C7 8.04467 8.04467 7 9.33333 7H11.6667V5.83333C11.6667 5.2205 11.7874 4.61366 12.0219 4.04748C12.2564 3.48129 12.6002 2.96684 13.0335 2.5335C13.4668 2.10016 13.9813 1.75642 14.5475 1.52189ZM18.6667 5.83333V7H14V5.83333C14 5.52691 14.0604 5.2235 14.1776 4.9404C14.2949 4.65731 14.4667 4.40009 14.6834 4.18342C14.9001 3.96675 15.1573 3.79487 15.4404 3.67761C15.7235 3.56035 16.0269 3.5 16.3333 3.5C16.6398 3.5 16.9432 3.56035 17.2263 3.67761C17.5094 3.79487 17.7666 3.96675 17.9832 4.18342C18.1999 4.40008 18.3718 4.65731 18.4891 4.9404C18.6063 5.2235 18.6667 5.52691 18.6667 5.83333Z" fill="black"/>
<path d="M14 21.5833C12.7113 21.5833 11.6667 22.628 11.6667 23.9167C11.6667 25.2053 12.7113 26.25 14 26.25C15.2887 26.25 16.3333 25.2053 16.3333 23.9167C16.3333 22.628 15.2887 21.5833 14 21.5833Z" fill="black"/>
<path d="M2.33333 16.9167C2.33333 15.628 3.378 14.5833 4.66667 14.5833C5.95533 14.5833 7 15.628 7 16.9167C7 18.2053 5.95533 19.25 4.66667 19.25C3.378 19.25 2.33333 18.2053 2.33333 16.9167Z" fill="black"/>
<path d="M4.90838 26.4916L15.4084 15.9916L13.7585 14.3417L3.25846 24.8417L4.90838 26.4916Z" fill="black"/>
</svg>
