<svg width="360" height="41" fill="none" xmlns="http://www.w3.org/2000/svg"><path fill-rule="evenodd" clip-rule="evenodd" d="M15.602 30.236a14.96 14.96 0 01-8.283-2.5 14.845 14.845 0 01-5.491-6.655 14.754 14.754 0 01-.847-8.569A14.804 14.804 0 015.062 4.92 14.933 14.933 0 0112.697.863a14.983 14.983 0 018.614.846 14.89 14.89 0 016.69 5.464 14.772 14.772 0 012.509 8.24 14.724 14.724 0 01-1.127 5.678 14.785 14.785 0 01-3.231 4.814 14.877 14.877 0 01-4.84 3.212 14.944 14.944 0 01-5.71 1.119z" fill="#FFEC00"/><path fill-rule="evenodd" clip-rule="evenodd" d="M15.602 30.236a14.96 14.96 0 01-8.283-2.5 14.845 14.845 0 01-5.491-6.655 14.754 14.754 0 01-.847-8.569A14.804 14.804 0 015.062 4.92 14.933 14.933 0 0112.697.863a14.983 14.983 0 018.614.846 14.89 14.89 0 016.69 5.464 14.772 14.772 0 012.509 8.24 14.724 14.724 0 01-1.127 5.678 14.785 14.785 0 01-3.231 4.814 14.877 14.877 0 01-4.84 3.212 14.944 14.944 0 01-5.71 1.119z" fill="#FFEC00"/><path d="M20.26.702A14.178 14.178 0 0015.722 0h-.112C11.485 0 7.53 1.63 4.613 4.53A15.427 15.427 0 00.058 15.47a15.43 15.43 0 004.555 10.938 15.594 15.594 0 0010.997 4.53h.112a14.421 14.421 0 004.538-.818 15.504 15.504 0 007.838-5.591 15.37 15.37 0 002.999-9.118 15.36 15.36 0 00-3-9.117A15.505 15.505 0 0020.26.702zm0 28.844a14.473 14.473 0 01-4.538.696h-.112a14.95 14.95 0 01-10.542-4.344A14.788 14.788 0 01.702 15.413c0-3.933 1.57-7.704 4.366-10.485A14.949 14.949 0 0115.61.585h.112c1.547.023 3.08.3 4.538.819a14.88 14.88 0 017.423 5.38 14.752 14.752 0 012.834 8.69c0 3.122-.992 6.164-2.834 8.69a14.882 14.882 0 01-7.423 5.382z" fill="#1A1A18"/><path d="M25.966 8.11c.366.932.566 1.922.588 2.923 0 4.28-4.31 6.017-6.055 5.906h-.235c-.224 0-.347-.111-.347-.228 0-.35.117-.585.347-.585a.377.377 0 01.235-.111c.47 0 .588.111 1.046.111.459 0 .588-.35.817-.819a1.406 1.406 0 00.341-1.04c0-.924-.935-2.778-1.393-4.514 0 .462 0 1.497-.459 1.497a.644.644 0 01-.587-.345c-.224-.345-.459-.807-.688-1.17.056.46.056.926 0 1.386 0 .456-.124.807-.353.807-.23 0-.588-.35-.588-1.17 0-.818.112-1.397.112-2.783a4.76 4.76 0 00-.807-2.726 4.799 4.799 0 00-2.22-1.788 5.49 5.49 0 00-1.394-.234c-4.074 0-4.544 3.702-4.767 3.813-.224.11-.47-.684-1.764-.684-1.51 0-3.145 1.97-3.721 3.134a12.727 12.727 0 00-1.517 6.01 12.893 12.893 0 003.847 9.117 13.034 13.034 0 009.198 3.747h.111c1.56-.003 3.104-.32 4.539-.93a12.77 12.77 0 006.017-4.678 12.664 12.664 0 002.26-7.255 12.905 12.905 0 00-2.446-7.526l-.117.135zm-10.247 6.718a6.731 6.731 0 01-1.51-4.292c0-.8.24-.924.47-.924.47 0 .7.696 1.04 1.62.085.341.246.659.47.93.354.813.589 1.274.93 2.087a4.432 4.432 0 00.117 1.754 18.785 18.785 0 01-1.523-1.175h.006zm4.539 7.987a2.743 2.743 0 01-1.916-.837 2.717 2.717 0 01-.76-1.94 3.444 3.444 0 01.589-1.754c.588.807 1.399 1.391 2.087.807l.117-.117c.588-.585.118-1.386-.117-1.62a2.752 2.752 0 011.954.757 2.721 2.721 0 01.844 1.91 2.811 2.811 0 01-.824 1.969 2.84 2.84 0 01-1.974.831v-.006zm49.145 2.21l3.033-9.378L76.04 4.286H47.164l-6.643 20.74h10.834L55.9 10.43h7.33l-4.65 14.594h10.823zm27.594-6.952c.235-.462 1.281-3.7-.347-5.783-.929-1.28-2.675-2.087-5.826-2.087a9.99 9.99 0 00-6.172 1.854 6.679 6.679 0 00-1.282 1.169l.935-2.66H75.34l-2.88 9.027-3.61 11.356h9.488l2.563-7.765c.465.695 1.276 1.754 3.727 2.087.5.092 1.009.13 1.517.111 6.52 0 9.318-3.824 10.482-6.256.159-.338.283-.69.37-1.053zm-9.9 0c-.235.696-.817 2.34-2.445 2.778-.29.146-.61.226-.935.233-2.351 0-1.763-2.198-1.393-3.25.353-.813.811-2.427 2.352-2.895.352 0 .587-.11.94-.11 2.44 0 1.764 2.192 1.505 3.244h-.024zm160.122-7.531h-9.547l-1.634 5.105h-3.38l1.634-5.105h-9.665l-3.838 11.817-.817 2.667h9.664l1.623-5.216h3.379l-1.627 5.216h9.546l3.033-9.38 1.629-5.104zm27.482 0h-10.946l-7.453 5.795 3.961-12.168h-9.669l-5.004 15.77-1.633 5.087h9.552l2.328-7.064 3.151 7.064h11.286l-4.426-8.11 8.853-6.374zm-53.219 5.672c.118-.456.118-.8.235-1.17.09-.486.051-.988-.113-1.455a2.864 2.864 0 00-.821-1.21c-1.177-1.275-3.845-2.2-9.553-2.2h-2.21c-2.151.113-4.29.383-6.402.808l-1.282 4.058a28.818 28.818 0 017.108-1.17h.587c3.609.111 3.956 1.035 3.845 1.755a.453.453 0 01-.022.186.437.437 0 01-.102.158 30.984 30.984 0 00-3.602-.233h-.119c-7.218 0-10.246 2.338-11.527 4.402-.205.444-.36.91-.464 1.386a2.428 2.428 0 00.464 2.204c.929 1.035 3.026 1.62 5.591 1.62 2.063.04 4.105-.437 5.936-1.386.588-.467 1.047-.818 1.394-1.046l-.694 2.081h8.964l2.099-6.829.688-1.959zm-9.658 2.924a4.127 4.127 0 01-1.405 1.853 6.97 6.97 0 01-1.393.585c-.342.092-.694.13-1.047.111-1.282 0-1.975-.34-1.863-1.035v-.35a2.433 2.433 0 011.863-1.386c.347 0 .588-.117 1.047-.117a9.278 9.278 0 011.981-.117h.934l-.117.456zm-13.868-2.339c.296-1.14.13-2.35-.464-3.368-.935-1.754-3.492-3.129-8.73-3.129a22.34 22.34 0 00-3.033.234c-1.512.345-2.67 1.041-4.31 2.205.235-1.62 1.982-3.012 3.492-3.59a1.67 1.67 0 01.811-.234 34.161 34.161 0 014.433-.813c1.375-.1 2.739-.333 4.068-.696l.119-.228 2.351-7.186c-.354 0-.706.123-1.047.123-1.635.228-3.263.462-5.008.696a25.124 25.124 0 00-4.897 1.274c-.229 0-.348.117-.588.117a18.05 18.05 0 00-5.239 3.59 26.521 26.521 0 00-4.426 7.175 20.993 20.993 0 00-1.981 5.794c-.117.228-1.981 6.596 9.664 6.596.854.02 1.709-.016 2.558-.111 7.918-.585 10.71-4.403 11.756-7.064a6.07 6.07 0 00.471-1.385zm-10.275.812c-.347 1.041-.818 2.778-1.982 3.357a1.906 1.906 0 01-1.175.233c-1.864 0-1.4-1.97-.817-3.707a4.27 4.27 0 01.701-1.592 4.307 4.307 0 011.279-1.185c.291-.146.61-.226.935-.234 2.022-.006 1.553 1.73 1.059 3.128zm-21.275-7.414a10.13 10.13 0 00-6.137 1.83c-.452.362-.881.753-1.282 1.17l.928-2.66h-9.005l-4.538 14.366-1.982 6.028h9.665l2.468-7.765c.466.696 1.4 1.755 3.728 2.088a7.456 7.456 0 001.628.11c7.572 0 10.246-5.326 10.829-7.296.559-2.076 1.957-7.87-6.302-7.87zm-3.733 7.877c-.23.812-.812 2.426-2.439 2.777a2.308 2.308 0 01-.936.234c-2.351 0-1.764-2.199-1.398-3.251.228-.813.928-2.34 2.351-2.772a3.3 3.3 0 011.046-.234c2.316 0 1.728 2.199 1.376 3.245zm-16.301 2.315a10.571 10.571 0 001.763-3.473 4.32 4.32 0 00-.035-2.788 4.352 4.352 0 00-1.728-2.194c-1.517-1.047-4.192-1.754-8.495-1.754a16.383 16.383 0 00-2.452.11c-8.03.585-10.828 3.942-11.874 6.023-.084.4-.202.79-.353 1.17-.229.93-.817 3.128.353 4.864 1.175 1.626 3.727 3.012 9.406 3.012.816.018 1.634-.019 2.445-.111 6.084-.462 9.218-2.66 10.97-4.86zm-8.736-2.924c-.347 1.047-.811 2.777-2.211 3.473a3.328 3.328 0 01-1.175.234c-2.205 0-1.281-2.426-.806-3.707a4.127 4.127 0 01.663-1.664c.341-.5.786-.92 1.306-1.23a3.4 3.4 0 011.046-.228c2.111.029 1.524 1.994 1.177 3.145v-.023zm-13.268-6.923h-11.652l-6.866 8.572 3.145-8.572h-8.618L96.65 22.125l-.929 2.9h11.411l7.225-8.81-3.263 8.81h8.612l3.845-12.161.817-2.322z" fill="#1A1A18"/><path fill-rule="evenodd" clip-rule="evenodd" d="M353.316 8.005c0 .081.042.163.06.245a4.386 4.386 0 00-.06-.245zm-.277-.766l.084.204-.084-.204zm-.17-.339l.1.187-.1-.187zm.318.707c0 .07.047.146.072.222a1.594 1.594 0 00-.072-.222zm.306 1.281c0 .105 0 .216.035.321-.012-.105-.017-.216-.035-.321zm-.077-.456c0 .087.03.18.048.274-.006-.093-.006-.187-.048-.274zm.129.941v.52c.018-.181.013-.35 0-.52zm-17.047 4.373zm-.371.679l.082-.129-.082.129zm.772-2.058zm-.772 9.677l1.817 2.97-1.817-2.97zm.869-10.934z" fill="#1A1A18"/><path fill-rule="evenodd" clip-rule="evenodd" d="M335.875 14.787zm16.718-8.332l.089.129-.089-.129zm-.947-.976l.066.053-.066-.053zm-.951-.567l.123.058-.123-.058zm1.21.778l.088.087-.088-.088zm.241.227l.094.105-.094-.105zm.229.228l.095.117-.095-.117zm-1.07-.9l.077.047-.077-.047zm-.199-.122l-.076-.042.076.042zm1.764 1.759l-.071-.129.071.13zm-2.476-2.099l.129.053-.129-.053zm-.906-.293l.136.036-.136-.035zm-.298-.07l.135.03-.135-.03zm.605.152l.135.042-.135-.042zm.299.1l.136.047-.136-.047zm3.364 4.028c0 .059 0 .123.03.182-.03-.059-.03-.117-.03-.181zm.07.51v.163c.012-.053.005-.105 0-.164zm-.559-2.123l.072.158-.072-.158zm.294.743l.054.175-.054-.176zm.111.42c0 .059 0 .123.043.181-.013-.064-.031-.122-.043-.18zm-.252-.807l.066.164-.066-.164z" fill="#fff"/><path fill-rule="evenodd" clip-rule="evenodd" d="M352.869 4.187v.935c.964.959 1.763 2.45 1.763 4.765a5.328 5.328 0 01-1.763 4.251 5.64 5.64 0 011.995 2.052c.477.843.728 1.793.728 2.76a6.193 6.193 0 01-1.847 4.573 7.253 7.253 0 01-.876.748v.737h7.137V4.187h-7.137z" fill="#1A1A18"/><path fill-rule="evenodd" clip-rule="evenodd" d="M354.539 18.95a4.406 4.406 0 00-1.675-3.508 6.487 6.487 0 00-2.446-1.216 4.063 4.063 0 002.446-1.678 4.606 4.606 0 00.705-2.649v-.684c0-.053 0-.222-.036-.321-.035-.1 0-.123-.029-.182-.029-.058 0-.181-.046-.275-.048-.093 0-.122-.042-.18-.042-.06-.042-.165-.058-.246l-.054-.176c0-.076-.047-.146-.07-.222l-.065-.164-.082-.204-.071-.152-.1-.188-.071-.128-.111-.176-.089-.128-.123-.164-.094-.117-.135-.152-.093-.105-.154-.146-.088-.088-.194-.158-.065-.053-.264-.187-.076-.046-.2-.123-.077-.041h-.029l-.176-.094-.124-.058-.17-.076-.13-.053-.17-.064-.136-.047-.17-.058-.135-.041-.165-.047-.135-.035-.165-.041-.135-.03-.171-.034h-1.004l-.541-.035h-11.399v.982c1.176 1.17 1.945 3.029 1.952 5.94a6.753 6.753 0 01-1.952 5.011v3.854l2.733 4.479.342.584h8.301a8.849 8.849 0 005.361-2.116 5.145 5.145 0 001.675-4.163zm-11.264-9.94h1.411a1.698 1.698 0 011.244.386c.17.143.312.319.415.517.101.197.163.413.182.635 0 .86-.806 1.526-1.876 1.561h-1.376V9.01zm1.952 10.975h-1.929v-3.438h2.194a1.692 1.692 0 011.588 1.051c.085.209.126.432.122.657a1.865 1.865 0 01-.633 1.266c-.369.324-.851.49-1.342.464z" fill="#1A1A18"/><path fill-rule="evenodd" clip-rule="evenodd" d="M335.046 20.278l-2.164-3.544a5.046 5.046 0 001.305-.508c.202-.105.4-.223.588-.351l.294-.228a5.33 5.33 0 00.282-.246 5.31 5.31 0 00.37-.392l.177-.222c.087-.11.17-.234.247-.362l.082-.129c.108-.189.204-.384.289-.585a6.128 6.128 0 00.452-1.766c.031-.285.047-.572.047-.859a8.49 8.49 0 00-.87-4.128 4.928 4.928 0 00-.353-.556 4.558 4.558 0 00-.399-.473 5.397 5.397 0 00-.324-.298l-.205-.164c-.107-.076-.212-.152-.324-.222l-.342-.193a5.651 5.651 0 00-1.221-.48 9.779 9.779 0 00-1.442-.28c-.247-.03-.499-.053-.752-.07l-.764-.041H318.92v20.827h7.137V17.12l3.95 7.888h7.93l-1.81-2.97-1.081-1.76zm-5.638-7.923a1.872 1.872 0 01-.306.462l-.135.134a2.177 2.177 0 01-1.453.55h-1.498V9.782h1.752c.132.012.265.035.393.07l.229.082a1.852 1.852 0 01.829.649l.1.152c.156.27.238.577.236.889.004.251-.046.5-.147.73zm-28.982 21.447h2.129a2.819 2.819 0 01-.965 1.59 2.535 2.535 0 01-1.698.673 2.046 2.046 0 01-1.764-.86 3.16 3.16 0 01-.589-1.93c.002-.234.019-.469.054-.7a4.925 4.925 0 011.093-2.41 2.94 2.94 0 012.305-1.17c.478-.009.945.151 1.317.45.349.3.6.697.717 1.141l1.874-.924a3.368 3.368 0 00-1.351-1.754 3.987 3.987 0 00-2.228-.62 5.349 5.349 0 00-3.833 1.573 6.488 6.488 0 00-1.917 3.719 5.742 5.742 0 00-.082.953 4.347 4.347 0 001.052 3.005 3.766 3.766 0 002.981 1.258 4.857 4.857 0 003.698-1.602 7.003 7.003 0 001.74-3.737l.04-.251h-4.326l-.247 1.596zm14.556-2.105l.105-.672h-1.857l-1.041 6.496h1.858l.464-2.924c.061-.507.215-.998.453-1.45a1.473 1.473 0 011.317-.707c.267-.007.528.082.735.251l.494-1.719a1.966 1.966 0 00-.748-.158 2.192 2.192 0 00-1.78.883zm13.198-.889a3.854 3.854 0 00-2.628.97 4.3 4.3 0 00-1.035 1.428 4.246 4.246 0 00-.37 1.719 2.703 2.703 0 00.793 2.029 2.942 2.942 0 002.134.771 3.892 3.892 0 002.639-.964 4.005 4.005 0 001.352-2.491 3.96 3.96 0 00.053-.643 2.724 2.724 0 00-.799-2.047 2.935 2.935 0 00-2.139-.772zm.499 4.584a1.673 1.673 0 01-1.34.708 1.185 1.185 0 01-.965-.468 1.636 1.636 0 01-.323-1.04 2.33 2.33 0 01.524-1.45 1.694 1.694 0 011.358-.708 1.13 1.13 0 01.946.438c.231.306.352.682.34 1.065a2.26 2.26 0 01-.54 1.444v.011zm14.279-.847c-.181 1.083-.629 1.625-1.347 1.625-.583 0-.876-.335-.876-1.006a2.77 2.77 0 01.089-.62l.547-3.508h-1.859l-.587 3.824a4.163 4.163 0 00-.065.714c0 1.446.844 2.17 2.528 2.17 1.96 0 3.09-.962 3.392-2.884l.589-3.824h-1.859l-.552 3.509zm16.378-2.889a2.245 2.245 0 00-1.852-.848 2.65 2.65 0 00-1.934.807l.094-.584h-1.858l-1.581 9.975h1.84l.634-4.093a1.68 1.68 0 001.612.818 3.274 3.274 0 002.621-1.321 4.27 4.27 0 001.011-2.783 2.986 2.986 0 00-.587-1.97zm-1.822 3.725a1.685 1.685 0 01-1.335.707 1.179 1.179 0 01-.964-.467 1.705 1.705 0 01-.324-1.053 2.213 2.213 0 01.536-1.438 1.66 1.66 0 011.334-.708 1.12 1.12 0 01.946.468c.23.297.349.666.336 1.04a2.283 2.283 0 01-.529 1.45z" fill="#1A1A18"/><path fill-rule="evenodd" clip-rule="evenodd" d="M295.664 4.163h20.923l.005 20.828-20.928-.012V4.163z" fill="#D8D9D9"/><path fill-rule="evenodd" clip-rule="evenodd" d="M295.664 4.163h20.923l.005 20.828-20.928-.012V4.163z" fill="#1A1A18"/><path fill-rule="evenodd" clip-rule="evenodd" d="M296.229 24.406l-.006-19.658h19.775l-.017 19.664-19.752-.006z" fill="#FFEC00"/><path fill-rule="evenodd" clip-rule="evenodd" d="M306.094 17.08l6.295 6.25 2.463-2.45-6.302-6.262 1.229-1.21v-2.439l.876-.871v2.023l.858.842 3.075-3.064.829.819a5.478 5.478 0 00-1.617-3.76 2.629 2.629 0 00-1.901-.88 2.645 2.645 0 00-1.944.78l-2.939 2.947.741.737-1.635 1.62-1.634-1.62.741-.737-2.968-2.952a2.633 2.633 0 00-1.944-.78 2.648 2.648 0 00-1.902.88 5.395 5.395 0 00-1.587 3.759l.8-.819 3.075 3.064.857-.848v-2.011l.876.871v2.433l1.23 1.216-6.244 6.203 2.463 2.444 6.209-6.186z" fill="#1A1A18"/></svg>