<svg width="28" height="28" viewBox="0 0 28 28" fill="none" xmlns="http://www.w3.org/2000/svg">
<path fill-rule="evenodd" clip-rule="evenodd" d="M14 25.6667C7.55669 25.6667 2.33334 20.4433 2.33334 14C2.33334 7.55668 7.55669 2.33334 14 2.33334C20.4433 2.33334 25.6667 7.55668 25.6667 14C25.6667 20.4433 20.4433 25.6667 14 25.6667ZM23.2611 15.1667H18.6299C18.528 17.5604 18.2147 20.03 17.6906 22.5753C20.6686 21.2919 22.8451 18.5026 23.2611 15.1667ZM15.1532 23.2628L15.1954 23.0761C15.8139 20.34 16.1799 17.7036 16.2943 15.1667H11.7057C11.8201 17.7036 12.1861 20.34 12.8046 23.0761L12.8468 23.2628C13.2247 23.3094 13.6096 23.3333 14 23.3333C14.3905 23.3333 14.7753 23.3094 15.1532 23.2628ZM10.3094 22.5753C7.33141 21.2919 5.15488 18.5026 4.73889 15.1667H9.37013C9.47198 17.5604 9.78529 20.03 10.3094 22.5753ZM23.2611 12.8333C22.8478 9.51901 20.6968 6.74435 17.7485 5.44992C18.3164 7.76847 18.6204 10.2301 18.6618 12.8333H23.2611ZM15.1393 4.7355C14.7659 4.69006 14.3857 4.66667 14 4.66667C13.6143 4.66667 13.2341 4.69006 12.8607 4.7355L12.788 4.98868C12.092 7.41249 11.7194 10.0267 11.6719 12.8333H16.3281C16.2807 10.0267 15.908 7.41249 15.212 4.98868L15.1393 4.7355ZM10.2515 5.44992C9.68363 7.76847 9.37959 10.2301 9.33823 12.8333H4.73889C5.15218 9.51901 7.30324 6.74435 10.2515 5.44992Z" fill="black"/>
</svg>
