<svg width="360" height="41" viewBox="0 0 360 41" fill="none" xmlns="http://www.w3.org/2000/svg">
<path fill-rule="evenodd" clip-rule="evenodd" d="M15.6018 30.2356C12.653 30.2356 9.77044 29.3657 7.31868 27.7361C4.86693 26.1065 2.95611 23.7904 1.82793 21.0805C0.699732 18.3707 0.404847 15.3888 0.980558 12.5123C1.55626 9.63572 2.97672 6.99357 5.06225 4.92003C7.14778 2.84649 9.80471 1.4347 12.697 0.863198C15.5893 0.291705 18.587 0.58618 21.311 1.7094C24.035 2.83262 26.3629 4.73409 28.0003 7.17336C29.6377 9.61263 30.5111 12.4801 30.5099 15.4132C30.5138 17.3612 30.1308 19.2909 29.3829 21.0914C28.6351 22.8918 27.537 24.5276 26.1517 25.9048C24.7666 27.2821 23.1215 28.3736 21.3111 29.1168C19.5006 29.86 17.5603 30.2402 15.6018 30.2356Z" fill="#FFEC00"/>
<path fill-rule="evenodd" clip-rule="evenodd" d="M15.6018 30.2356C12.653 30.2356 9.77044 29.3657 7.31868 27.7361C4.86693 26.1065 2.95611 23.7904 1.82793 21.0805C0.699732 18.3707 0.404847 15.3888 0.980558 12.5123C1.55626 9.63572 2.97672 6.99357 5.06225 4.92003C7.14778 2.84649 9.80471 1.4347 12.697 0.863198C15.5893 0.291705 18.587 0.58618 21.311 1.7094C24.035 2.83262 26.3629 4.73409 28.0003 7.17336C29.6377 9.61263 30.5111 12.4801 30.5099 15.4132C30.5138 17.3612 30.1308 19.2909 29.3829 21.0914C28.6351 22.8918 27.537 24.5276 26.1517 25.9048C24.7666 27.2821 23.1215 28.3736 21.3111 29.1168C19.5006 29.86 17.5603 30.2402 15.6018 30.2356Z" fill="#FFEC00"/>
<path d="M20.2599 0.7019C18.7958 0.223037 17.2628 -0.0139957 15.7217 0.000238798H15.6099C11.4854 0.000238798 7.52968 1.62995 4.61315 4.53086C1.6966 7.43178 0.0581055 11.3663 0.0581055 15.4688C0.0581055 19.5714 1.6966 23.5058 4.61315 26.4067C7.52968 29.3076 11.4854 30.9373 15.6099 30.9373H15.7217C17.2689 30.9095 18.8014 30.6332 20.2599 30.1187C23.4036 29.1311 26.1489 27.1728 28.0976 24.5279C30.0463 21.8831 31.0969 18.6893 31.0969 15.4104C31.0969 12.1313 30.0463 8.93759 28.0976 6.29275C26.1489 3.64789 23.4036 1.68952 20.2599 0.7019ZM20.2599 29.5458C18.7944 30.0176 17.2621 30.2526 15.7217 30.2416H15.6099C11.6561 30.2416 7.86413 28.6792 5.06831 25.8984C2.27249 23.1176 0.701814 19.346 0.701814 15.4132C0.701814 11.4805 2.27249 7.70891 5.06831 4.92808C7.86413 2.14722 11.6561 0.58495 15.6099 0.58495H15.7217C17.2693 0.608357 18.8026 0.884932 20.2599 1.40356C23.2426 2.37408 25.8405 4.25744 27.6826 6.78456C29.5246 9.31168 30.5165 12.3532 30.5165 15.4747C30.5165 18.5961 29.5246 21.6376 27.6826 24.1648C25.8405 26.6918 23.2426 28.5752 20.2599 29.5458Z" fill="#1A1A18"/>
<path d="M25.9657 8.10975C26.3325 9.04246 26.5315 10.032 26.5537 11.0333C26.5537 15.3134 22.2446 17.05 20.4987 16.9389H20.2636C20.0402 16.9389 19.9167 16.8278 19.9167 16.7109C19.9167 16.3601 20.0343 16.1262 20.2636 16.1262C20.3261 16.0625 20.4095 16.0231 20.4987 16.015C20.969 16.015 21.0865 16.1262 21.5452 16.1262C22.0037 16.1262 22.133 15.7753 22.3622 15.3075C22.486 15.1654 22.5799 15.0001 22.6384 14.8214C22.697 14.6427 22.719 14.4541 22.7031 14.2667C22.7031 13.343 21.7684 11.4894 21.3099 9.75279C21.3099 10.2147 21.3099 11.2497 20.8514 11.2497C20.7307 11.2531 20.6115 11.2225 20.5075 11.1615C20.4034 11.1005 20.3189 11.0114 20.2636 10.9047C20.0402 10.5597 19.8051 10.0978 19.5758 9.73527C19.6317 10.1955 19.6317 10.6608 19.5758 11.121C19.5758 11.5771 19.4523 11.9279 19.2231 11.9279C18.9938 11.9279 18.6351 11.5771 18.6351 10.7585C18.6351 9.93991 18.7469 9.36104 18.7469 7.97528C18.7622 7.00623 18.4807 6.05548 17.9401 5.24926C17.3993 4.44302 16.6248 3.81942 15.7194 3.46128C15.2671 3.32364 14.7987 3.24505 14.3262 3.22742C10.2523 3.22742 9.782 6.92865 9.55862 7.03975C9.33522 7.15085 9.08833 6.35561 7.79503 6.35561C6.28423 6.35561 4.64999 8.32609 4.07388 9.48967C3.08024 11.3392 2.55936 13.4034 2.55719 15.5005C2.57431 18.9261 3.95771 22.2051 6.40355 24.6169C8.84938 27.0289 12.1577 28.3766 15.6018 28.3642H15.7135C17.2738 28.361 18.8173 28.0448 20.2518 27.4344C22.6899 26.5215 24.7893 24.8892 26.2686 22.7563C27.7479 20.6234 28.5366 18.0917 28.5289 15.5005C28.5225 12.7999 27.6674 10.1687 26.0834 7.97528L25.9657 8.10975ZM15.7194 14.8281C14.7322 13.6142 14.1983 12.0976 14.2086 10.5363C14.2086 9.73527 14.4496 9.61246 14.6789 9.61246C15.1491 9.61246 15.3785 10.3083 15.7194 11.2321C15.804 11.5732 15.9648 11.891 16.1897 12.1618C16.5425 12.9746 16.7776 13.4365 17.1185 14.2492C17.0402 14.8359 17.0801 15.4322 17.2361 16.0034C16.7087 15.6378 16.2005 15.2455 15.7135 14.8281H15.7194ZM20.2577 22.8152C19.8986 22.8077 19.5447 22.7298 19.2159 22.586C18.8873 22.4424 18.5902 22.2356 18.3418 21.9777C18.0934 21.7198 17.8985 21.4157 17.7683 21.0829C17.638 20.75 17.5751 20.395 17.5829 20.0379C17.615 19.411 17.8183 18.8045 18.1708 18.2837C18.7586 19.0907 19.5698 19.6754 20.2577 19.0907L20.3752 18.9737C20.963 18.389 20.4928 17.5879 20.2577 17.354C20.6175 17.3462 20.9753 17.4091 21.3106 17.5389C21.646 17.6687 21.9523 17.863 22.2121 18.1106C22.4721 18.3582 22.6803 18.6543 22.825 18.982C22.9698 19.3096 23.0483 19.6625 23.0559 20.0203C23.0513 20.7587 22.7556 21.4658 22.2323 21.9896C21.709 22.5134 21 22.8119 20.2577 22.8211V22.8152Z" fill="#1A1A18"/>
<path d="M69.4028 25.0254L72.4362 15.6467L76.0398 4.28564H72.4362H47.164L40.5212 25.0254H51.3555L55.8997 10.431H63.2303L58.5803 25.0254H69.4028Z" fill="#1A1A18"/>
<path d="M96.997 18.0733C97.2321 17.6113 98.2785 14.3721 96.6501 12.2905C95.7214 11.01 93.9753 10.2031 90.8245 10.2031C88.6172 10.1225 86.4456 10.7746 84.652 12.0566C84.1754 12.3893 83.7446 12.7825 83.3704 13.226L84.3051 10.5656H75.3402L72.4596 19.5935L68.8502 30.9486H78.3383L80.9013 23.1837C81.3657 23.8795 82.177 24.9378 84.6284 25.2711C85.1283 25.3634 85.6369 25.4007 86.1451 25.3822C92.6645 25.3822 95.4626 21.5582 96.6266 19.1258C96.786 18.7885 96.9102 18.4358 96.997 18.0733ZM87.0974 18.0733C86.8623 18.7691 86.2803 20.4121 84.652 20.8507C84.3616 20.9966 84.0423 21.0765 83.7173 21.0845C81.3658 21.0845 81.9536 18.886 82.3239 17.8335C82.6766 17.0208 83.1353 15.4069 84.6755 14.9393C85.0281 14.9393 85.2633 14.8281 85.616 14.8281C88.0556 14.8281 87.3796 17.0208 87.1209 18.0733H87.0974Z" fill="#1A1A18"/>
<path d="M247.219 10.5424H245.59H237.672L236.038 15.6469H232.658L234.292 10.5424H224.627L220.789 22.3594L219.972 25.0256H220.789H229.636L231.259 19.8101H234.638L233.011 25.0256H242.557L245.59 15.6469L247.219 10.5424Z" fill="#1A1A18"/>
<path d="M274.701 10.5423H263.755L256.302 16.3368L260.263 4.16895H250.594L245.59 19.9386L243.957 25.0256H245.59H253.509L255.837 17.9624L258.988 25.0256H270.274L265.848 16.9157L274.701 10.5423Z" fill="#1A1A18"/>
<path d="M221.482 16.2141C221.6 15.7581 221.6 15.4131 221.717 15.0447C221.807 14.5578 221.768 14.0562 221.604 13.5888C221.44 13.1214 221.157 12.7044 220.783 12.3784C219.606 11.1038 216.938 10.1799 211.23 10.1799H209.02C206.869 10.2921 204.73 10.5618 202.618 10.9868L201.336 15.0447C203.647 14.3592 206.034 13.9664 208.444 13.8753H209.031C212.64 13.9864 212.987 14.9102 212.876 15.6295C212.882 15.6924 212.874 15.756 212.854 15.8158C212.831 15.8755 212.798 15.9297 212.752 15.9744C211.557 15.8265 210.354 15.7484 209.15 15.7405H209.031C201.813 15.7405 198.785 18.0793 197.504 20.1434C197.299 20.5874 197.144 21.0521 197.04 21.5292C196.934 21.9068 196.921 22.304 197.002 22.6875C197.084 23.071 197.255 23.4296 197.504 23.7335C198.433 24.7685 200.53 25.3531 203.095 25.3531C205.158 25.3925 207.2 24.916 209.031 23.9674C209.619 23.4997 210.078 23.1489 210.425 22.9208L209.731 25.0023H218.695L220.794 18.173L221.482 16.2141ZM211.824 19.1376C211.544 19.8765 211.056 20.5197 210.419 20.9912C209.977 21.2361 209.51 21.4322 209.026 21.576C208.684 21.6677 208.332 21.7051 207.979 21.6871C206.697 21.6871 206.004 21.3479 206.116 20.6521V20.3013C206.286 19.9348 206.546 19.6163 206.871 19.3744C207.198 19.1327 207.577 18.9749 207.979 18.9155C208.326 18.9155 208.567 18.7986 209.026 18.7986C209.68 18.689 210.344 18.6497 211.007 18.6817H211.941L211.824 19.1376Z" fill="#1A1A18"/>
<path d="M197.956 16.7986C198.252 15.6588 198.086 14.4489 197.492 13.4305C196.557 11.6765 194 10.3024 188.762 10.3024C187.747 10.3114 186.733 10.3895 185.729 10.5363C184.217 10.8813 183.059 11.5771 181.419 12.7406C181.654 11.121 183.401 9.72937 184.911 9.1505C185.157 9.00491 185.436 8.92437 185.722 8.91661C187.18 8.54843 188.661 8.27691 190.155 8.10385C191.53 8.00391 192.894 7.77087 194.223 7.40804L194.342 7.18003L196.693 -0.00610352C196.339 -0.00610352 195.987 0.116699 195.646 0.116699C194.011 0.344737 192.383 0.578623 190.638 0.812507C188.966 1.07161 187.325 1.49868 185.741 2.08718C185.512 2.08718 185.393 2.20413 185.153 2.20413C183.206 3.08262 181.434 4.29824 179.914 5.79427C178.065 7.93617 176.57 10.3581 175.488 12.9687C174.548 14.7938 173.88 16.746 173.507 18.7632C173.39 18.9912 171.526 25.3587 183.171 25.3587C184.025 25.3796 184.88 25.3426 185.729 25.2476C193.647 24.6629 196.439 20.8448 197.485 18.1844C197.697 17.7427 197.856 17.2775 197.956 16.7986ZM187.681 17.6113C187.334 18.652 186.863 20.3886 185.699 20.9675C185.343 21.1697 184.931 21.2518 184.524 21.2015C182.66 21.2015 183.124 19.2309 183.707 17.4943C183.829 16.9213 184.067 16.3792 184.408 15.9016C184.749 15.4238 185.184 15.0207 185.687 14.7169C185.978 14.5709 186.297 14.4909 186.622 14.4831C188.644 14.4772 188.175 16.2138 187.681 17.6113Z" fill="#1A1A18"/>
<path d="M166.406 10.1974C164.215 10.1283 162.06 10.7708 160.269 12.0276C159.817 12.3893 159.388 12.7799 158.987 13.1969L159.915 10.5366H150.91L146.372 24.903L144.39 30.9314H154.055L156.523 23.1664C156.989 23.8622 157.923 24.9205 160.251 25.2538C160.787 25.3502 161.333 25.3875 161.879 25.3649C169.451 25.3649 172.125 20.0382 172.708 18.0676C173.267 15.992 174.665 10.1974 166.406 10.1974ZM162.673 18.0735C162.443 18.8862 161.861 20.5001 160.234 20.8509C159.941 20.994 159.623 21.0737 159.298 21.0847C156.947 21.0847 157.534 18.8862 157.9 17.8338C158.128 17.021 158.828 15.4949 160.251 15.0622C160.585 14.9278 160.938 14.8487 161.297 14.8284C163.613 14.8284 163.025 17.0269 162.673 18.0735Z" fill="#1A1A18"/>
<path d="M146.372 20.3886C147.17 19.3494 147.768 18.1716 148.135 16.9155C148.432 16.0076 148.419 15.0282 148.1 14.1279C147.782 13.2277 147.174 12.4567 146.372 11.9337C144.855 10.8871 142.18 10.1796 137.877 10.1796C137.059 10.1552 136.239 10.1924 135.425 10.2907C127.395 10.8754 124.597 14.2317 123.551 16.3132C123.467 16.7124 123.349 17.1037 123.198 17.4826C122.969 18.4124 122.381 20.6109 123.551 22.3475C124.726 23.973 127.278 25.3587 132.957 25.3587C133.773 25.3774 134.591 25.3402 135.402 25.2476C141.486 24.7857 144.62 22.5872 146.372 20.3886ZM137.636 17.465C137.289 18.5117 136.825 20.2425 135.425 20.9383C135.051 21.0866 134.653 21.1659 134.25 21.1722C132.045 21.1722 132.969 18.7456 133.444 17.465C133.54 16.869 133.767 16.301 134.107 15.8011C134.448 15.3011 134.893 14.8811 135.413 14.5708C135.749 14.4398 136.101 14.3629 136.459 14.3428C138.57 14.372 137.983 16.3366 137.636 17.4885V17.465Z" fill="#1A1A18"/>
<path d="M124.368 10.5424H123.551H112.716L105.85 19.1142L108.995 10.5424H100.377L96.6501 22.1255L95.7214 25.0256H96.6501H107.132L114.357 16.2141L111.094 25.0256H119.706L123.551 12.8636L124.368 10.5424Z" fill="#1A1A18"/>
<path fill-rule="evenodd" clip-rule="evenodd" d="M353.316 8.00464C353.316 8.0865 353.358 8.16834 353.376 8.2502C353.358 8.16834 353.339 8.0865 353.316 8.00464Z" fill="#1A1A18"/>
<path fill-rule="evenodd" clip-rule="evenodd" d="M353.039 7.23853L353.123 7.44315L353.039 7.23853Z" fill="#1A1A18"/>
<path fill-rule="evenodd" clip-rule="evenodd" d="M352.869 6.89954L352.969 7.08665L352.869 6.89954Z" fill="#1A1A18"/>
<path fill-rule="evenodd" clip-rule="evenodd" d="M353.187 7.60706C353.187 7.67722 353.234 7.75323 353.259 7.82924C353.241 7.75323 353.217 7.68306 353.187 7.60706Z" fill="#1A1A18"/>
<path fill-rule="evenodd" clip-rule="evenodd" d="M353.493 8.8877C353.493 8.99294 353.493 9.10403 353.528 9.20928C353.516 9.10403 353.511 8.99294 353.493 8.8877Z" fill="#1A1A18"/>
<path fill-rule="evenodd" clip-rule="evenodd" d="M353.416 8.43164C353.416 8.51934 353.446 8.61292 353.464 8.70647C353.458 8.61292 353.458 8.51934 353.416 8.43164Z" fill="#1A1A18"/>
<path fill-rule="evenodd" clip-rule="evenodd" d="M353.545 9.3728C353.545 9.54236 353.545 9.71191 353.545 9.89317C353.563 9.71191 353.558 9.54236 353.545 9.3728Z" fill="#1A1A18"/>
<path fill-rule="evenodd" clip-rule="evenodd" d="M336.498 13.7465C336.415 13.9471 336.318 14.1425 336.209 14.3312C336.318 14.1425 336.415 13.9472 336.498 13.7465Z" fill="#1A1A18"/>
<path fill-rule="evenodd" clip-rule="evenodd" d="M336.127 14.4247L336.209 14.2961L336.127 14.4247Z" fill="#1A1A18"/>
<path fill-rule="evenodd" clip-rule="evenodd" d="M336.899 12.3667C336.839 12.7271 336.745 13.0813 336.621 13.425C336.746 13.0813 336.839 12.7271 336.899 12.3667Z" fill="#1A1A18"/>
<path fill-rule="evenodd" clip-rule="evenodd" d="M336.127 22.0436L337.944 25.0139L336.127 22.0436Z" fill="#1A1A18"/>
<path fill-rule="evenodd" clip-rule="evenodd" d="M336.996 11.1095C336.998 11.3967 336.982 11.6836 336.95 11.9691C336.982 11.6836 336.998 11.3967 336.996 11.1095C337.06 9.68269 336.761 8.26311 336.127 6.98145C336.76 8.26318 337.06 9.68271 336.996 11.1095Z" fill="#1A1A18"/>
<path fill-rule="evenodd" clip-rule="evenodd" d="M335.875 14.7873C335.962 14.6762 336.046 14.5533 336.123 14.4247C336.046 14.5533 335.962 14.6762 335.875 14.7873Z" fill="white"/>
<path fill-rule="evenodd" clip-rule="evenodd" d="M352.593 6.45532L352.682 6.58395L352.593 6.45532Z" fill="white"/>
<path fill-rule="evenodd" clip-rule="evenodd" d="M351.646 5.47876L351.712 5.53229L351.646 5.47876Z" fill="white"/>
<path fill-rule="evenodd" clip-rule="evenodd" d="M350.695 4.91162L350.818 4.97007L350.695 4.91162Z" fill="white"/>
<path fill-rule="evenodd" clip-rule="evenodd" d="M351.905 5.68921L351.993 5.77692L351.905 5.68921Z" fill="white"/>
<path fill-rule="evenodd" clip-rule="evenodd" d="M352.146 5.91724L352.24 6.02248L352.146 5.91724Z" fill="white"/>
<path fill-rule="evenodd" clip-rule="evenodd" d="M352.375 6.14526L352.47 6.2622L352.375 6.14526Z" fill="white"/>
<path fill-rule="evenodd" clip-rule="evenodd" d="M351.305 5.24475L351.382 5.29228L351.305 5.24475Z" fill="white"/>
<path fill-rule="evenodd" clip-rule="evenodd" d="M351.106 5.1228L351.03 5.08118L351.106 5.1228Z" fill="white"/>
<path fill-rule="evenodd" clip-rule="evenodd" d="M352.87 6.88207L352.799 6.75342L352.87 6.88207Z" fill="white"/>
<path fill-rule="evenodd" clip-rule="evenodd" d="M350.394 4.78271L350.523 4.83623L350.394 4.78271Z" fill="white"/>
<path fill-rule="evenodd" clip-rule="evenodd" d="M349.488 4.4906L349.624 4.52627L349.488 4.4906Z" fill="white"/>
<path fill-rule="evenodd" clip-rule="evenodd" d="M349.19 4.42017L349.325 4.44988L349.19 4.42017Z" fill="white"/>
<path fill-rule="evenodd" clip-rule="evenodd" d="M349.795 4.57227L349.93 4.61389L349.795 4.57227Z" fill="white"/>
<path fill-rule="evenodd" clip-rule="evenodd" d="M350.094 4.67163L350.23 4.71921L350.094 4.67163Z" fill="white"/>
<path fill-rule="evenodd" clip-rule="evenodd" d="M353.458 8.70056C353.458 8.75904 353.458 8.82336 353.488 8.88182C353.458 8.82336 353.458 8.76488 353.458 8.70056Z" fill="white"/>
<path fill-rule="evenodd" clip-rule="evenodd" d="M353.528 9.20923C353.528 9.26186 353.528 9.3145 353.528 9.37297C353.54 9.32035 353.533 9.26771 353.528 9.20923Z" fill="white"/>
<path fill-rule="evenodd" clip-rule="evenodd" d="M352.969 7.08691L353.041 7.2448L352.969 7.08691Z" fill="white"/>
<path fill-rule="evenodd" clip-rule="evenodd" d="M353.263 7.8291L353.317 8.0045L353.263 7.8291Z" fill="white"/>
<path fill-rule="evenodd" clip-rule="evenodd" d="M353.374 8.25012C353.374 8.3086 353.374 8.3729 353.417 8.43138C353.404 8.36706 353.386 8.3086 353.374 8.25012Z" fill="white"/>
<path fill-rule="evenodd" clip-rule="evenodd" d="M353.122 7.44348L353.188 7.60722L353.122 7.44348Z" fill="white"/>
<path fill-rule="evenodd" clip-rule="evenodd" d="M352.869 4.18652V5.12204C353.833 6.08098 354.632 7.57201 354.632 9.88746C354.674 10.6818 354.538 11.4754 354.233 12.2107C353.928 12.9459 353.461 13.6045 352.869 14.1383C353.701 14.6404 354.387 15.3469 354.864 16.1898C355.341 17.0326 355.592 17.9834 355.592 18.9505C355.614 19.7977 355.462 20.6404 355.145 21.4268C354.826 22.2132 354.35 22.9266 353.745 23.5229C353.473 23.7951 353.181 24.0454 352.869 24.2714V25.0081H360.006V4.18652H352.869Z" fill="#1A1A18"/>
<path fill-rule="evenodd" clip-rule="evenodd" d="M354.539 18.9505C354.548 18.2774 354.401 17.6112 354.11 17.003C353.82 16.3949 353.394 15.861 352.864 15.4423C352.145 14.8682 351.311 14.4535 350.418 14.226C351.417 13.9939 352.291 13.3944 352.864 12.548C353.363 11.7562 353.608 10.8327 353.569 9.89921C353.569 9.71795 353.569 9.5484 353.569 9.37884C353.569 9.32036 353.569 9.26773 353.569 9.2151C353.569 9.16247 353.569 8.99291 353.533 8.89351C353.498 8.79412 353.533 8.77073 353.504 8.71226C353.475 8.65378 353.504 8.53097 353.458 8.43743C353.41 8.34387 353.458 8.31463 353.416 8.25617C353.374 8.19769 353.374 8.09245 353.358 8.01059L353.304 7.83519C353.304 7.75917 353.257 7.68901 353.234 7.61299L353.169 7.44926L353.087 7.24462L353.016 7.09259L352.916 6.90548L352.845 6.77686L352.734 6.60146L352.645 6.4728L352.522 6.30909L352.428 6.19215L352.293 6.04012L352.2 5.93488L352.046 5.7887L351.958 5.70097L351.764 5.5431L351.699 5.49049L351.435 5.30337L351.359 5.25658L351.159 5.13383L351.082 5.09289H351.053L350.877 4.99931L350.753 4.94086L350.583 4.86484L350.453 4.81221L350.283 4.74789L350.147 4.70114L349.977 4.64265L349.842 4.60171L349.677 4.55496L349.542 4.51984L349.377 4.47894L349.242 4.44968L349.071 4.4146H348.943H348.772H348.649H348.466H348.354H348.16H348.067L347.526 4.37952H342.587H336.127V5.36184C337.303 6.53126 338.072 8.39066 338.079 11.3025C338.115 12.2261 337.961 13.1472 337.624 14.009C337.289 14.8709 336.779 15.6551 336.127 16.3135V20.1667L338.86 24.6457L339.202 25.2303H347.503C349.477 25.1425 351.365 24.3971 352.864 23.1137C353.439 22.5895 353.889 21.943 354.179 21.2223C354.469 20.5015 354.592 19.725 354.539 18.9505ZM343.275 9.01047H344.686C344.909 8.98962 345.133 9.01298 345.347 9.07923C345.561 9.1455 345.759 9.2533 345.93 9.39639C346.1 9.53948 346.242 9.71503 346.345 9.91276C346.446 10.1105 346.508 10.3265 346.527 10.5483C346.527 11.4078 345.721 12.0743 344.651 12.1094H343.275V9.01047ZM345.227 19.9855H343.298V16.5474H345.492C345.717 16.5442 345.942 16.5862 346.151 16.671C346.36 16.7557 346.551 16.8816 346.71 17.0408C346.87 17.2001 346.996 17.3896 347.08 17.5982C347.165 17.8066 347.206 18.0299 347.202 18.2548C347.166 18.7428 346.939 19.1974 346.569 19.5211C346.2 19.8446 345.718 20.0113 345.227 19.9855Z" fill="#1A1A18"/>
<path fill-rule="evenodd" clip-rule="evenodd" d="M335.046 20.2776L332.882 16.7343C333.339 16.6264 333.778 16.4552 334.187 16.2256C334.389 16.1206 334.587 16.0035 334.775 15.8747L335.069 15.6468C335.163 15.5707 335.257 15.4889 335.351 15.4012C335.481 15.2771 335.604 15.1463 335.721 15.0094L335.898 14.7872C335.985 14.6761 336.068 14.5534 336.145 14.4247L336.227 14.2961C336.335 14.1074 336.431 13.9121 336.516 13.7113C336.562 13.6119 336.603 13.5067 336.639 13.4014C336.762 13.0578 336.855 12.7035 336.915 12.3431C336.938 12.2145 336.956 12.0819 336.968 11.9455C336.999 11.6601 337.015 11.3731 337.015 11.086C337.077 9.65918 336.778 8.23966 336.145 6.95792C336.04 6.76528 335.922 6.57972 335.792 6.40243C335.669 6.23544 335.537 6.07716 335.393 5.92882C335.286 5.82358 335.181 5.72417 335.069 5.63061L334.864 5.46692C334.757 5.3909 334.652 5.31488 334.54 5.24472L334.198 5.05175C334.019 4.95608 333.834 4.87019 333.646 4.79448C333.426 4.7089 333.203 4.63473 332.977 4.57228C332.504 4.4428 332.023 4.34899 331.535 4.29164C331.288 4.2624 331.036 4.23902 330.783 4.22148L330.019 4.18054H329.631H328.855H318.92V25.008H326.057V17.1202L330.007 25.008H337.937L336.127 22.0377L335.046 20.2776ZM329.408 12.3548C329.33 12.523 329.226 12.6787 329.102 12.8168L328.967 12.9512C328.872 13.0366 328.77 13.113 328.661 13.1792C328.316 13.3908 327.92 13.5021 327.514 13.5008H326.016V9.78205H327.556H327.768C327.9 9.79356 328.033 9.81707 328.161 9.85225L328.39 9.93408C328.607 10.023 328.806 10.1498 328.979 10.3083C329.067 10.3917 329.149 10.4838 329.219 10.5831L329.319 10.7351C329.475 11.0053 329.557 11.3121 329.555 11.6239C329.559 11.8752 329.509 12.1245 329.408 12.3548Z" fill="#1A1A18"/>
<path fill-rule="evenodd" clip-rule="evenodd" d="M300.426 33.8019H302.555C302.423 34.4252 302.083 34.9858 301.59 35.3924C301.128 35.8195 300.522 36.0593 299.892 36.0648C299.549 36.0796 299.208 36.0087 298.899 35.8586C298.591 35.7084 298.326 35.4838 298.128 35.2053C297.725 34.6429 297.52 33.9654 297.539 33.2757C297.541 33.0408 297.558 32.8064 297.593 32.5741C297.73 31.6871 298.109 30.8541 298.686 30.1651C298.955 29.8082 299.303 29.5173 299.702 29.3146C300.101 29.1119 300.543 29.0028 300.991 28.9957C301.469 28.9864 301.936 29.146 302.308 29.4459C302.657 29.7443 302.908 30.1421 303.025 30.5861L304.899 29.6622C304.66 28.9429 304.184 28.3248 303.548 27.908C302.883 27.486 302.108 27.2702 301.32 27.2883C300.608 27.2829 299.902 27.4194 299.243 27.6894C298.586 27.9595 297.988 28.3579 297.487 28.8611C296.454 29.8569 295.78 31.1642 295.57 32.58C295.517 32.8948 295.488 33.2135 295.488 33.533C295.446 34.631 295.821 35.7044 296.54 36.5384C296.912 36.9557 297.372 37.2852 297.888 37.5028C298.404 37.7202 298.961 37.8203 299.521 37.7956C300.217 37.8091 300.908 37.6731 301.546 37.3966C302.184 37.1201 302.755 36.7097 303.219 36.1935C304.161 35.1491 304.768 33.8476 304.959 32.4571L304.999 32.2057H300.673L300.426 33.8019Z" fill="#1A1A18"/>
<path fill-rule="evenodd" clip-rule="evenodd" d="M314.982 31.6971L315.087 31.0246H313.23L312.189 37.5208H314.047L314.511 34.5973C314.572 34.0905 314.726 33.5992 314.964 33.1471C315.1 32.9228 315.294 32.7387 315.525 32.6143C315.756 32.4897 316.018 32.4295 316.281 32.4396C316.548 32.4327 316.809 32.522 317.016 32.6911L317.51 30.9721C317.273 30.8711 317.02 30.8174 316.762 30.8142C316.417 30.8103 316.075 30.8883 315.765 31.0418C315.455 31.1953 315.187 31.4199 314.982 31.6971Z" fill="#1A1A18"/>
<path fill-rule="evenodd" clip-rule="evenodd" d="M328.18 30.8083C327.211 30.7914 326.273 31.1381 325.552 31.7789C325.111 32.1784 324.76 32.6642 324.517 33.2056C324.275 33.7469 324.149 34.3322 324.147 34.9247C324.131 35.2989 324.194 35.6724 324.33 36.0214C324.467 36.3706 324.674 36.6879 324.94 36.9537C325.227 37.2166 325.562 37.4203 325.929 37.5528C326.295 37.6852 326.685 37.7441 327.074 37.7255C328.044 37.7435 328.985 37.3993 329.713 36.7607C330.453 36.1211 330.934 35.2358 331.065 34.2698C331.1 34.0571 331.118 33.8421 331.118 33.6266C331.135 33.249 331.073 32.8721 330.935 32.5198C330.797 32.1674 330.588 31.8475 330.319 31.5801C330.032 31.3164 329.695 31.1123 329.327 30.9798C328.959 30.8473 328.569 30.789 328.18 30.8083ZM328.679 35.3925C328.528 35.6073 328.326 35.7835 328.094 35.9064C327.861 36.0294 327.603 36.0957 327.339 36.1C327.152 36.1037 326.967 36.0632 326.799 35.9818C326.632 35.9005 326.486 35.7807 326.374 35.6322C326.151 35.332 326.036 34.9648 326.051 34.5914C326.056 34.0632 326.241 33.5521 326.575 33.1413C326.729 32.9262 326.933 32.75 327.168 32.6273C327.405 32.5044 327.666 32.4381 327.933 32.4338C328.113 32.4257 328.295 32.4613 328.459 32.5377C328.624 32.6141 328.768 32.7289 328.879 32.8724C329.11 33.1785 329.231 33.5536 329.219 33.9366C329.214 34.4659 329.023 34.9767 328.679 35.3808V35.3925Z" fill="#1A1A18"/>
<path fill-rule="evenodd" clip-rule="evenodd" d="M342.958 34.5447C342.777 35.6284 342.329 36.1702 341.611 36.1702C341.028 36.1702 340.735 35.8349 340.735 35.1644C340.741 34.9552 340.771 34.7473 340.824 34.5447L341.371 31.0364H339.512L338.925 34.8604C338.883 35.0959 338.861 35.3346 338.86 35.5738C338.86 37.0199 339.704 37.7431 341.388 37.7431C343.348 37.7431 344.478 36.7821 344.78 34.8604L345.369 31.0364H343.51L342.958 34.5447Z" fill="#1A1A18"/>
<path fill-rule="evenodd" clip-rule="evenodd" d="M359.336 31.6563C359.116 31.3793 358.834 31.158 358.512 31.0107C358.191 30.8634 357.837 30.794 357.484 30.8085C357.123 30.8044 356.765 30.8739 356.433 31.0126C356.1 31.1514 355.8 31.3565 355.55 31.6153L355.644 31.0307H353.786L352.205 41.0059H354.045L354.679 36.9129C354.842 37.1882 355.08 37.4118 355.364 37.557C355.65 37.702 355.971 37.7626 356.291 37.7315C356.802 37.7301 357.305 37.6099 357.759 37.3804C358.214 37.151 358.609 36.8186 358.912 36.41C359.571 35.6309 359.929 34.6445 359.923 33.6268C359.968 32.9216 359.758 32.2238 359.336 31.6563ZM357.514 35.3809C357.362 35.594 357.162 35.7689 356.93 35.8916C356.699 36.0145 356.442 36.0819 356.179 36.0884C355.992 36.0921 355.807 36.0516 355.64 35.9703C355.472 35.8889 355.326 35.7691 355.215 35.6206C354.994 35.3149 354.879 34.9449 354.891 34.5682C354.892 34.0409 355.082 33.5312 355.427 33.1298C355.577 32.9154 355.776 32.7395 356.009 32.6165C356.24 32.4935 356.497 32.427 356.761 32.4223C356.945 32.4165 357.128 32.4561 357.293 32.5378C357.458 32.6194 357.601 32.7404 357.707 32.89C357.937 33.1874 358.056 33.5556 358.043 33.9308C358.04 34.4606 357.854 34.9734 357.514 35.3809Z" fill="#1A1A18"/>
<path fill-rule="evenodd" clip-rule="evenodd" d="M295.664 4.16309H316.587L316.592 24.9905L295.664 24.9788V4.16309Z" fill="#D8D9D9"/>
<path fill-rule="evenodd" clip-rule="evenodd" d="M295.664 4.16309H316.587L316.592 24.9905L295.664 24.9788V4.16309Z" fill="#1A1A18"/>
<path fill-rule="evenodd" clip-rule="evenodd" d="M296.229 24.4057L296.223 4.74768H315.998L315.981 24.4116L296.229 24.4057Z" fill="#FFEC00"/>
<path fill-rule="evenodd" clip-rule="evenodd" d="M306.094 17.0793L312.389 23.3299L314.852 20.88L308.55 14.6176L309.779 13.4074V10.9691L310.655 10.0978V12.1209L311.513 12.9629L314.588 9.89903L315.417 10.7176C315.385 9.30412 314.805 7.95739 313.8 6.95795C313.56 6.68982 313.269 6.47344 312.941 6.32223C312.614 6.17102 312.26 6.0882 311.899 6.07888C311.539 6.06956 311.18 6.13395 310.846 6.26806C310.511 6.40217 310.208 6.60312 309.955 6.85852L307.016 9.80549L307.757 10.5422L306.122 12.1619L304.488 10.5422L305.229 9.80549L302.261 6.85271C302.007 6.5973 301.705 6.39633 301.369 6.2622C301.035 6.1281 300.677 6.06371 300.317 6.07303C299.955 6.08234 299.602 6.16517 299.274 6.31638C298.947 6.46759 298.656 6.68397 298.415 6.95209C297.413 7.95135 296.844 9.30057 296.828 10.7118L297.628 9.89318L300.703 12.9571L301.56 12.1093V10.0978L302.436 10.9691V13.4015L303.666 14.6176L297.422 20.8214L299.885 23.2655L306.094 17.0793Z" fill="#1A1A18"/>
</svg>
